<svg width="20" height="20" viewBox="0 0 20 20" fill="none" xmlns="http://www.w3.org/2000/svg">
<rect width="20" height="20" fill="" style="mix-blend-mode:multiply"/>
<path d="M7.46712 11.875C6.85545 11.8751 6.25748 11.6939 5.74884 11.3541C5.24021 11.0143 4.84377 10.5313 4.60966 9.96624C4.37556 9.40113 4.31431 8.77929 4.43367 8.17937C4.55302 7.57946 4.84762 7.02841 5.28019 6.59594L8.471 3.40576C9.05096 2.82575 9.83758 2.49989 10.6578 2.49986C11.478 2.49983 12.2647 2.82564 12.8447 3.4056C13.4247 3.98556 13.7505 4.77218 13.7505 5.5924C13.7506 6.41262 13.4248 7.19925 12.8448 7.77926L12.4996 8.12463L11.6147 7.24157L11.9633 6.89288C12.3075 6.54696 12.5005 6.0787 12.5 5.59072C12.4996 5.10274 12.3057 4.63485 11.9609 4.28957C11.6098 3.95449 11.1431 3.76754 10.6578 3.76754C10.1724 3.76754 9.70573 3.95449 9.35462 4.28957L6.16419 7.47957C5.99304 7.65064 5.85728 7.85375 5.76465 8.0773C5.67202 8.30085 5.62435 8.54046 5.62435 8.78244C5.62435 9.02442 5.67202 9.26404 5.76465 9.48759C5.85728 9.71114 5.99304 9.91425 6.16419 10.0853C6.51529 10.4204 6.98198 10.6073 7.46731 10.6073C7.95265 10.6073 8.41933 10.4204 8.77044 10.0853L9.65437 10.9694C9.36776 11.2574 9.02688 11.4858 8.65144 11.6412C8.276 11.7967 7.87347 11.8761 7.46712 11.875Z" fill="#161616"/>
<path d="M12.4671 10.625C11.8554 10.6251 11.2575 10.4439 10.7488 10.1041C10.2402 9.76432 9.84377 9.28134 9.60966 8.71624C9.37556 8.15113 9.31431 7.52929 9.43367 6.92937C9.55302 6.32946 9.84762 5.77841 10.2802 5.34594L10.6256 5.00057L11.5095 5.88469L11.1641 6.22988C10.993 6.40095 10.8573 6.60406 10.7647 6.82759C10.6721 7.05112 10.6244 7.29071 10.6244 7.53266C10.6244 7.77462 10.6721 8.0142 10.7647 8.23773C10.8573 8.46127 10.993 8.66437 11.1641 8.83544C11.5152 9.17052 11.9819 9.35747 12.4672 9.35747C12.9526 9.35747 13.4193 9.17052 13.7704 8.83544C13.9329 8.67294 16.7262 5.87963 16.9612 5.64513C17.3062 5.29936 17.4999 4.83086 17.4999 4.34241C17.4999 3.85396 17.3062 3.38546 16.9612 3.03969C16.6101 2.70462 16.1434 2.51767 15.6581 2.51767C15.1727 2.51767 14.706 2.70462 14.3549 3.03969L13.471 2.15563C14.0512 1.57651 14.8375 1.25141 15.6572 1.25177C16.477 1.25213 17.2631 1.57792 17.8427 2.15755C18.4224 2.73718 18.7482 3.52323 18.7486 4.34297C18.749 5.1627 18.4239 5.94907 17.8448 6.52926C17.6095 6.76426 14.8173 9.55601 14.6549 9.71894C14.3683 10.0071 14.0273 10.2355 13.6518 10.3911C13.2762 10.5466 12.8736 10.6261 12.4671 10.625Z" fill="#161616"/>
<path d="M15 18.75H2.5C2.16859 18.7497 1.85085 18.6179 1.6165 18.3835C1.38216 18.1492 1.25035 17.8314 1.25 17.5V5.00001C1.25035 4.66859 1.38216 4.35085 1.6165 4.11651C1.85085 3.88216 2.16859 3.75035 2.5 3.75001H5V5.00001H2.5V17.5H15V11.25H16.25V17.5C16.2497 17.8314 16.1178 18.1492 15.8835 18.3835C15.6492 18.6179 15.3314 18.7497 15 18.75Z" fill="#161616"/>
</svg>
