<svg width="24" height="24" viewBox="0 0 24 24" fill="none" xmlns="http://www.w3.org/2000/svg">
<rect width="24" height="24" rx="12" fill="white"/>
<path d="M6.91838 13.5764C6.37398 13.4834 5.85727 13.8494 5.76428 14.3938C5.67128 14.9382 6.03722 15.4549 6.58162 15.5479L6.75 14.5622L6.91838 13.5764ZM6.84857 14.579L7.3349 13.7052L7.1855 13.6221L7.01696 13.5933L6.84857 14.579ZM7.53833 14.9629L8.02466 14.0891L7.53833 14.9629ZM8.49716 15.6434L9.23781 14.9715L8.49716 15.6434ZM9.03532 16.2366L8.29467 16.9085L9.03532 16.2366ZM9.61135 17.3577L10.5485 17.0087L9.61135 17.3577ZM9.76483 17.7699L8.82768 18.1188L9.76483 17.7699ZM10.1915 17.8433L10.9699 18.471L10.1915 17.8433ZM10.7379 17.1658L11.5163 17.7935L10.7379 17.1658ZM11.2359 16.4949L12.0641 17.0553L11.2359 16.4949ZM11.4606 16.1627L10.6324 15.6023L11.4606 16.1627ZM11.6853 15.8306L12.5135 16.391L11.6853 15.8306ZM11.9858 15.0803L12.9698 15.2584L11.9858 15.0803ZM12.0614 14.6621L11.0774 14.484L12.0614 14.6621ZM12.1371 14.2439L11.1531 14.0658L12.1371 14.2439ZM12.8663 12.8174L12.0271 12.2735L12.8663 12.8174ZM13.3042 12.1465L12.4687 11.5971L13.3042 12.1465ZM13.5244 11.8117L14.3599 12.3611L13.5244 11.8117ZM13.7445 11.4769L14.5801 12.0263L13.7445 11.4769ZM14.3041 10.8763L14.9207 11.6636L14.3041 10.8763ZM15.4426 9.68602L16.399 9.97821L15.4426 9.68602ZM15.5626 9.2934L14.6062 9.00121L15.5626 9.2934ZM15.6825 8.90077L14.7262 8.60858L15.6825 8.90077ZM16.0705 8.20104L16.8239 8.85863L16.0705 8.20104ZM17.1139 6.63849L18.0508 6.98793L17.1139 6.63849ZM17.2334 6.31789L16.2965 5.96846L17.2334 6.31789ZM17.3273 5.98241L16.8273 6.84844L17.3273 5.98241ZM17.3015 5.96754L17.8015 5.10152L17.309 4.81715L16.8128 5.09511L17.3015 5.96754ZM17.2 6.02441L16.334 5.52441L14.5152 8.67469L17.6887 6.89684L17.2 6.02441ZM18.116 6.43781C18.3922 5.95951 18.2283 5.34792 17.75 5.07178C17.2717 4.79564 16.6601 4.95951 16.384 5.43781L17.25 5.93781L18.116 6.43781ZM6.75 14.5622L6.58162 15.5479L6.68019 15.5647L6.84857 14.579L7.01696 13.5933L6.91838 13.5764L6.75 14.5622ZM6.84857 14.579L6.36224 15.4528L7.052 15.8367L7.53833 14.9629L8.02466 14.0891L7.3349 13.7052L6.84857 14.579ZM7.53833 14.9629L7.052 15.8367C7.4904 16.0807 7.69114 16.2432 7.75652 16.3153L8.49716 15.6434L9.23781 14.9715C8.94442 14.6481 8.50594 14.357 8.02466 14.0891L7.53833 14.9629ZM8.49716 15.6434L7.75652 16.3153L8.02559 16.6119L8.76624 15.94L9.50689 15.2681L9.23781 14.9715L8.49716 15.6434ZM8.76624 15.94L8.02559 16.6119L8.29467 16.9085L9.03532 16.2366L9.77596 15.5647L9.50689 15.2681L8.76624 15.94ZM9.03532 16.2366L8.29467 16.9085C8.38058 17.0032 8.4584 17.127 8.52072 17.2944L9.45787 16.9455L10.395 16.5965C10.2527 16.2143 10.0488 15.8655 9.77596 15.5647L9.03532 16.2366ZM9.45787 16.9455L8.52072 17.2944L8.6742 17.7066L9.61135 17.3577L10.5485 17.0087L10.395 16.5965L9.45787 16.9455ZM9.61135 17.3577L8.6742 17.7066L8.82768 18.1188L9.76483 17.7699L10.702 17.4209L10.5485 17.0087L9.61135 17.3577ZM9.76483 17.7699L8.82768 18.1188C8.87386 18.2428 8.94851 18.4074 9.07469 18.5618C9.20551 18.7219 9.43519 18.9207 9.77863 18.9798C10.1243 19.0393 10.4097 18.9272 10.5898 18.8153C10.762 18.7084 10.8866 18.5744 10.9699 18.471L10.1915 17.8433L9.41309 17.2156C9.40534 17.2252 9.44386 17.1727 9.53494 17.1162C9.634 17.0547 9.84331 16.9616 10.1178 17.0088C10.3902 17.0557 10.5537 17.211 10.6234 17.2963C10.6885 17.3759 10.707 17.4343 10.702 17.4209L9.76483 17.7699ZM10.1915 17.8433L10.9699 18.471L11.2431 18.1323L10.4647 17.5045L9.68629 16.8768L9.41309 17.2156L10.1915 17.8433ZM10.4647 17.5045L11.2431 18.1323L11.5163 17.7935L10.7379 17.1658L9.95949 16.538L9.68629 16.8768L10.4647 17.5045ZM10.7379 17.1658L11.5163 17.7935C11.7145 17.5477 11.8973 17.3017 12.0641 17.0553L11.2359 16.4949L10.4077 15.9344C10.2747 16.1309 10.1256 16.3321 9.95949 16.538L10.7379 17.1658ZM11.2359 16.4949L12.0641 17.0553L12.2888 16.7232L11.4606 16.1627L10.6324 15.6023L10.4077 15.9344L11.2359 16.4949ZM11.4606 16.1627L12.2888 16.7232L12.5135 16.391L11.6853 15.8306L10.8571 15.2702L10.6324 15.6023L11.4606 16.1627ZM11.6853 15.8306L12.5135 16.391C12.7459 16.0476 12.8961 15.6657 12.9698 15.2584L11.9858 15.0803L11.0018 14.9022C10.9746 15.0524 10.9244 15.1708 10.8571 15.2702L11.6853 15.8306ZM11.9858 15.0803L12.9698 15.2584L13.0455 14.8402L12.0614 14.6621L11.0774 14.484L11.0018 14.9022L11.9858 15.0803ZM12.0614 14.6621L13.0455 14.8402L13.1211 14.422L12.1371 14.2439L11.1531 14.0658L11.0774 14.484L12.0614 14.6621ZM12.1371 14.2439L13.1211 14.422C13.1495 14.2655 13.201 14.1397 13.2698 14.0335L12.4306 13.4896L11.5914 12.9458C11.3699 13.2877 11.2257 13.6648 11.1531 14.0658L12.1371 14.2439ZM12.4306 13.4896L13.2698 14.0335L13.4876 13.6973L12.6485 13.1535L11.8093 12.6097L11.5914 12.9458L12.4306 13.4896ZM12.6485 13.1535L13.4876 13.6973L13.7055 13.3612L12.8663 12.8174L12.0271 12.2735L11.8093 12.6097L12.6485 13.1535ZM12.8663 12.8174L13.7055 13.3612C13.8495 13.139 13.9942 12.9172 14.1398 12.6959L13.3042 12.1465L12.4687 11.5971C12.3207 11.8221 12.1735 12.0476 12.0271 12.2735L12.8663 12.8174ZM13.3042 12.1465L14.1398 12.6959L14.3599 12.3611L13.5244 11.8117L12.6888 11.2623L12.4687 11.5971L13.3042 12.1465ZM13.5244 11.8117L14.3599 12.3611L14.5801 12.0263L13.7445 11.4769L12.909 10.9275L12.6888 11.2623L13.5244 11.8117ZM13.7445 11.4769L14.5801 12.0263C14.6628 11.9005 14.7733 11.779 14.9207 11.6636L14.3041 10.8763L13.6876 10.0889C13.3824 10.328 13.1197 10.607 12.909 10.9275L13.7445 11.4769ZM14.3041 10.8763L14.9207 11.6636L15.2602 11.3977L14.6436 10.6104L14.0271 9.82307L13.6876 10.0889L14.3041 10.8763ZM14.6436 10.6104L15.2602 11.3977L15.5997 11.1318L14.9831 10.3445L14.3666 9.55721L14.0271 9.82307L14.6436 10.6104ZM14.9831 10.3445L15.5997 11.1318C15.9787 10.835 16.256 10.4461 16.399 9.97821L15.4426 9.68602L14.4862 9.39383C14.4693 9.44942 14.4402 9.49954 14.3666 9.55721L14.9831 10.3445ZM15.4426 9.68602L16.399 9.97821L16.5189 9.58558L15.5626 9.2934L14.6062 9.00121L14.4862 9.39383L15.4426 9.68602ZM15.5626 9.2934L16.5189 9.58558L16.6389 9.19296L15.6825 8.90077L14.7262 8.60858L14.6062 9.00121L15.5626 9.2934ZM15.6825 8.90077L16.6389 9.19296C16.678 9.06497 16.7385 8.95646 16.8239 8.85863L16.0705 8.20104L15.3172 7.54344C15.0451 7.8551 14.847 8.21308 14.7262 8.60858L15.6825 8.90077ZM16.0705 8.20104L16.8239 8.85863L17.092 8.55152L16.3386 7.89393L15.5852 7.23633L15.3172 7.54344L16.0705 8.20104ZM16.3386 7.89393L17.092 8.55152L17.36 8.24441L16.6067 7.58682L15.8533 6.92922L15.5852 7.23633L16.3386 7.89393ZM16.6067 7.58682L17.36 8.24441C17.6032 7.96582 17.8022 7.65455 17.9313 7.30853L16.9943 6.9591L16.0574 6.60967C16.027 6.69113 15.9676 6.79833 15.8533 6.92922L16.6067 7.58682ZM16.9943 6.9591L17.9313 7.30853L18.0508 6.98793L17.1139 6.63849L16.1769 6.28906L16.0574 6.60967L16.9943 6.9591ZM17.1139 6.63849L18.0508 6.98793L18.1704 6.66732L17.2334 6.31789L16.2965 5.96846L16.1769 6.28906L17.1139 6.63849ZM17.2334 6.31789L18.1704 6.66732C18.2126 6.55407 18.2524 6.44076 18.2797 6.34303C18.2916 6.30077 18.3134 6.21874 18.3244 6.12403C18.3292 6.0825 18.3398 5.97816 18.3214 5.8494C18.3104 5.7725 18.2472 5.35884 17.8273 5.11639L17.3273 5.98241L16.8273 6.84844C16.615 6.72591 16.4951 6.55429 16.4322 6.42595C16.3718 6.30292 16.3504 6.19444 16.3415 6.13242C16.3243 6.0125 16.3347 5.92019 16.3377 5.89388C16.3451 5.8296 16.3574 5.79075 16.3536 5.8044C16.3497 5.81849 16.334 5.86797 16.2965 5.96846L17.2334 6.31789ZM17.3273 5.98241L17.8273 5.11639L17.8015 5.10152L17.3015 5.96754L16.8015 6.83357L16.8273 6.84844L17.3273 5.98241ZM17.3015 5.96754L16.8128 5.09511L16.7113 5.15198L17.2 6.02441L17.6887 6.89684L17.7902 6.83997L17.3015 5.96754ZM17.2 6.02441L18.066 6.52441L18.116 6.43781L17.25 5.93781L16.384 5.43781L16.334 5.52441L17.2 6.02441Z" fill="#8DBFFC"/>
</svg>
