<svg width="30" height="30" viewBox="0 0 30 30" fill="none" xmlns="http://www.w3.org/2000/svg">
<path d="M30 15.0551C30 6.74047 23.2842 0 15 0C6.7158 0 0 6.74047 0 15.0551C0 22.1153 4.8432 28.0398 11.3766 29.667V19.6559H8.2836V15.0551H11.3766V13.0726C11.3766 7.94849 13.6872 5.5734 18.6996 5.5734C19.65 5.5734 21.2898 5.76068 21.9606 5.94737V10.1176C21.6066 10.0803 20.9916 10.0616 20.2278 10.0616C17.7684 10.0616 16.818 10.9968 16.818 13.4279V15.0551H21.7176L20.8758 19.6559H16.818V30C24.2442 29.0997 30 22.7525 30 15.0551Z" fill="black"/>
</svg>
