<svg width="31" height="30" viewBox="0 0 31 30" fill="none" xmlns="http://www.w3.org/2000/svg">
<g clip-path="url(#clip0_1802_879)">
<circle cx="15.5918" cy="15" r="11.25" fill="#F5F4EE"/>
<path d="M13.3416 11.4751C13.1166 11.4751 12.8916 11.7001 12.8916 11.9251V15.3001C12.8916 15.5251 13.1166 15.7501 13.3416 15.7501C13.5666 15.7501 13.7916 15.5251 13.7916 15.3001V11.9251C13.7916 11.7001 13.5666 11.4751 13.3416 11.4751Z" fill="black"/>
<path d="M17.3168 11.4751C17.0918 11.4751 16.8668 11.7001 16.8668 11.9251V13.9501L15.2918 11.7751C15.2168 11.6251 14.9918 11.5501 14.7668 11.6251C14.6168 11.7001 14.4668 11.8501 14.4668 12.0751V15.3751C14.4668 15.6001 14.6918 15.8251 14.9168 15.8251C15.1418 15.8251 15.3668 15.6001 15.3668 15.3751V13.4251L16.9418 15.6001C17.0168 15.7501 17.1668 15.7501 17.3168 15.7501C17.3918 15.7501 17.3918 15.7501 17.4668 15.7501C17.6168 15.6751 17.7668 15.5251 17.7668 15.3001V11.9251C17.6918 11.7001 17.5418 11.4751 17.3168 11.4751Z" fill="black"/>
<path d="M12.0668 14.8501H10.8668V11.9251C10.8668 11.7001 10.6418 11.4751 10.4168 11.4751C10.1918 11.4751 9.9668 11.7001 9.9668 11.9251V15.3001C9.9668 15.5251 10.1918 15.7501 10.4168 15.7501H11.9918C12.2168 15.7501 12.4418 15.5251 12.4418 15.3001C12.4418 15.0751 12.3668 14.8501 12.0668 14.8501Z" fill="black"/>
<path d="M20.917 14.7752H19.192V13.9502H20.542C20.767 13.9502 20.992 13.7252 20.992 13.5002C20.992 13.2752 20.767 13.0502 20.542 13.0502H19.192V12.2252H20.842C21.067 12.2252 21.292 12.0002 21.292 11.7752C21.292 11.5502 21.067 11.3252 20.842 11.3252H18.742C18.517 11.3252 18.292 11.5502 18.292 11.7752V13.4252V15.0752C18.292 15.3002 18.517 15.5252 18.742 15.5252H20.917C21.142 15.5252 21.367 15.3002 21.367 15.0752C21.367 14.8502 21.142 14.7752 20.917 14.7752Z" fill="black"/>
<path d="M15.5918 0C7.3418 0 0.591797 6.75 0.591797 15C0.591797 23.25 7.3418 30 15.5918 30C23.8418 30 30.5918 23.25 30.5918 15C30.5918 6.75 23.8418 0 15.5918 0ZM23.3168 18.225C22.1168 19.725 16.8668 23.25 15.6668 24C15.1418 24.3 14.5418 23.925 14.5418 23.325V21.525C11.6168 21.375 6.3668 18.825 6.3668 13.725C6.3668 8.475 11.6168 5.925 15.6668 5.925C20.0168 5.925 24.9668 8.775 24.9668 13.725C24.8918 15.075 24.5168 16.725 23.3168 18.225Z" fill="black"/>
</g>
<defs>
<clipPath id="clip0_1802_879">
<rect width="31" height="30" fill="white"/>
</clipPath>
</defs>
</svg>
