<svg width="20" height="24" viewBox="0 0 20 24" fill="none" xmlns="http://www.w3.org/2000/svg">
<path d="M19.5 13.8125C19.5 15.7409 18.9282 17.6259 17.8568 19.2293C16.7855 20.8327 15.2627 22.0824 13.4812 22.8203C11.6996 23.5583 9.73919 23.7514 7.84787 23.3752C5.95656 22.9989 4.21928 22.0704 2.85571 20.7068C1.49215 19.3432 0.563555 17.6059 0.187349 15.7146C-0.188857 13.8233 0.00422506 11.8629 0.742179 10.0813C1.48013 8.29976 2.72982 6.77702 4.33319 5.70567C5.93657 4.63433 7.82164 4.0625 9.75 4.0625L14.7875 4.0625L11.8625 1.1375L13 -5.68248e-07L17.875 4.875L13 9.75L11.8625 8.6125L14.7875 5.6875L9.75 5.6875C8.14303 5.6875 6.57215 6.16402 5.236 7.05681C3.89985 7.9496 2.85845 9.21855 2.24348 10.7032C1.62852 12.1878 1.46762 13.8215 1.78112 15.3976C2.09463 16.9737 2.86846 18.4214 4.00476 19.5577C5.14106 20.694 6.5888 21.4679 8.1649 21.7814C9.74099 22.0949 11.3747 21.934 12.8593 21.319C14.344 20.7041 15.6129 19.6627 16.5057 18.3265C17.3985 16.9904 17.875 15.4195 17.875 13.8125L19.5 13.8125Z" fill="black"/>
</svg>
