<svg width="26" height="26" viewBox="0 0 26 26" fill="none" xmlns="http://www.w3.org/2000/svg">
<rect width="26" height="26" fill="" style="mix-blend-mode:multiply"/>
<path d="M17.8749 18.6875H11.3749V20.3125H17.8749V18.6875Z" fill="black"/>
<path d="M9.74992 18.6875H8.12492V20.3125H9.74992V18.6875Z" fill="black"/>
<path d="M17.8749 14.625H11.3749V16.25H17.8749V14.625Z" fill="black"/>
<path d="M9.74992 14.625H8.12492V16.25H9.74992V14.625Z" fill="black"/>
<path d="M17.8749 10.5625H11.3749V12.1875H17.8749V10.5625Z" fill="black"/>
<path d="M9.74992 10.5625H8.12492V12.1875H9.74992V10.5625Z" fill="black"/>
<path d="M20.3125 4.0625H17.875V3.25C17.875 2.81902 17.7038 2.4057 17.399 2.10095C17.0943 1.7962 16.681 1.625 16.25 1.625H9.75C9.31902 1.625 8.9057 1.7962 8.60095 2.10095C8.29621 2.4057 8.125 2.81902 8.125 3.25V4.0625H5.6875C5.25652 4.0625 4.8432 4.2337 4.53845 4.53845C4.2337 4.8432 4.0625 5.25652 4.0625 5.6875V22.75C4.0625 23.181 4.2337 23.5943 4.53845 23.899C4.8432 24.2038 5.25652 24.375 5.6875 24.375H20.3125C20.7435 24.375 21.1568 24.2038 21.4615 23.899C21.7663 23.5943 21.9375 23.181 21.9375 22.75V5.6875C21.9375 5.25652 21.7663 4.8432 21.4615 4.53845C21.1568 4.2337 20.7435 4.0625 20.3125 4.0625ZM9.75 3.25H16.25V6.5H9.75V3.25ZM20.3125 22.75H5.6875V5.6875H8.125V8.125H17.875V5.6875H20.3125V22.75Z" fill="black"/>
</svg>
