<svg width="75" height="25" viewBox="0 0 75 25" fill="none" xmlns="http://www.w3.org/2000/svg">
<path d="M53.8755 24.0688V21.2063L54.8122 20.9935C55.0251 20.9705 55.0709 20.8985 55.0709 20.666V11.5087C55.0709 11.3221 55.0251 11.25 54.8122 11.1812L53.8755 10.9487V8.10263H61.012V10.9684L60.072 11.2042C59.8624 11.2729 59.8133 11.345 59.8133 11.5317V20.679C59.8133 20.8887 59.8624 20.9378 60.0491 21.0066L61.012 21.2653V24.0819L53.8755 24.0688Z" fill="black"/>
<path d="M40.8832 24.0688L36.904 11.4727C36.8901 11.4182 36.8602 11.3691 36.8182 11.3318C36.7761 11.2944 36.7239 11.2705 36.6681 11.2631L35.4269 11.0535V8.14847H43.4574V11.0535L42.5208 11.3351C42.4302 11.3471 42.347 11.3915 42.2868 11.4602C42.2265 11.5289 42.1933 11.6171 42.1933 11.7085C42.2093 11.9708 42.2565 12.2303 42.3341 12.4814L44.0437 19.2249H44.1583L45.8614 12.4913C45.9364 12.2395 45.9836 11.9803 46.0022 11.7183C45.9968 11.6249 45.9587 11.5364 45.8947 11.4681C45.8306 11.3999 45.7447 11.3563 45.6518 11.345L44.738 11.0633V8.15829H52.559V11.0404L51.2719 11.2958C51.2137 11.3076 51.1603 11.3362 51.1184 11.3782C51.0764 11.4201 51.0478 11.4735 51.0361 11.5317L47.1747 24.0786L40.8832 24.0688Z" fill="black"/>
<path d="M62.6069 22.9192C62.6224 21.4668 62.7252 20.0165 62.9148 18.5764H66.7565L67.1331 20.4072C67.6253 20.5725 68.1402 20.6598 68.6593 20.6659C69.5502 20.6659 70.1364 20.2664 70.1364 19.631C70.1364 18.8352 69.1277 18.5306 67.929 18.1769C65.5349 17.4498 62.6724 16.5098 62.6724 12.7991C62.6724 9.08843 65.1124 7.87009 68.8002 7.87009C71.1484 7.87009 72.6746 8.47926 74.3154 9.25546C74.339 10.6291 74.2536 12.0024 74.06 13.3624H70.215L70.0283 11.7445C69.6562 11.588 69.2563 11.5078 68.8526 11.5087C67.9847 11.5087 67.4213 11.7183 67.4213 12.3996C67.4213 13.1987 68.5021 13.6703 69.6746 14.0666C71.9672 14.8166 74.8886 15.8515 74.8886 19.2576C74.8886 22.6638 72.727 24.3275 68.643 24.3275C66.5511 24.3145 64.4886 23.8333 62.6069 22.9192Z" fill="black"/>
<path d="M9.38974 8.14847V11.0469L10.5393 11.3744C11.0175 11.5022 11.0109 11.7478 10.762 12.4913L8.53494 19.2413H8.37445L6.65502 12.4913C6.46179 11.7707 6.46507 11.4694 6.87773 11.3744L8.09935 11.0469V8.14847H0V11.0469L1.31004 11.3024C1.43777 11.3351 1.46725 11.3974 1.5 11.5251L5.43013 24.0688H11.0797L13.0448 17.4039L15.0098 24.0589H20.6758L24.6059 11.5153C24.6209 11.4605 24.65 11.4105 24.6902 11.3703C24.7304 11.3301 24.7803 11.3011 24.8352 11.286L26.1026 11.0371V8.13864H18.0098V11.0371L19.2314 11.3646C19.6474 11.4596 19.6474 11.7609 19.4541 12.4814L17.7347 19.2314H17.5775L15.3373 12.4913C15.0917 11.7478 15.0819 11.5087 15.56 11.3744L16.7096 11.0469V8.14847H9.38974Z" fill="black"/>
<path d="M29.8068 16.8767H31.9258V16.274C31.9258 15.619 31.5524 15.2718 30.8777 15.2718C30.2031 15.2718 29.8068 15.6223 29.8068 16.274V16.8767ZM25.2904 19.6245V16.5524C25.2904 13.7358 27.4782 11.8723 30.786 11.8723C34.0939 11.8723 36.2784 13.7358 36.2784 16.5524V19.1725H29.8068V19.8013C29.8068 20.476 30.5994 20.9181 31.4443 20.9181C32.2893 20.9181 33.1212 20.5448 33.2587 19.9651H36.262V22.2577C35.0535 23.6791 33.2129 24.3079 31.3035 24.3079C27.714 24.3046 25.2904 22.4411 25.2904 19.6245Z" fill="black"/>
<path d="M57.547 6.68121C58.9397 6.68121 60.0688 5.55215 60.0688 4.15938C60.0688 2.76661 58.9397 1.63754 57.547 1.63754C56.1542 1.63754 55.0251 2.76661 55.0251 4.15938C55.0251 5.55215 56.1542 6.68121 57.547 6.68121Z" fill="black"/>
</svg>
