<svg width="24" height="24" viewBox="0 0 24 24" fill="none" xmlns="http://www.w3.org/2000/svg">
<rect width="24" height="24" rx="12" fill="white"/>
<path d="M8.58482 6.39093C8.23981 5.95967 7.61052 5.88975 7.17926 6.23476C6.748 6.57977 6.67808 7.20906 7.02309 7.64032L7.80396 7.01562L8.58482 6.39093ZM7.86642 7.09371L8.78229 6.69223L8.72947 6.57174L8.64729 6.46902L7.86642 7.09371ZM8.88333 8.71338L8.43475 9.60712L8.88333 8.71338ZM9.27679 8.91086L8.82821 9.8046L9.27679 8.91086ZM10.2989 9.62989L11.1082 9.04248L10.2989 9.62989ZM10.5342 9.95396L9.72487 10.5414L10.5342 9.95396ZM10.7694 10.278L9.9601 10.8654L10.7694 10.278ZM11.3015 10.8768L10.6224 11.6108L11.3015 10.8768ZM11.5984 11.1515L12.2776 10.4175L11.5984 11.1515ZM12.4486 12.0081L11.6809 12.6489L12.4486 12.0081ZM12.705 12.3153L11.9372 12.9561L12.705 12.3153ZM12.9613 12.6225L13.7291 11.9817L12.9613 12.6225ZM13.3916 13.3027L14.298 12.8802L13.3916 13.3027ZM13.7395 14.0489L12.8332 14.4715L13.7395 14.0489ZM14.119 14.7699L14.98 14.2612L14.119 14.7699ZM14.3245 15.1177L13.4635 15.6263L14.3245 15.1177ZM14.53 15.4656L13.669 15.9742L14.53 15.4656ZM14.965 16.142L14.1452 16.7147L14.965 16.142ZM15.1946 16.4706L16.0143 15.8979L15.1946 16.4706ZM15.4241 16.7992L14.6044 17.3719L15.4241 16.7992ZM15.6913 17.0998L16.2896 17.901L15.6913 17.0998ZM15.7288 17.0717L16.3272 17.873L16.6827 17.6074L16.7244 17.1656L15.7288 17.0717ZM15.7415 16.9375L16.5224 16.3128L14.978 14.3824L14.7459 16.8436L15.7415 16.9375ZM15.0231 17.6403C15.3681 18.0716 15.9974 18.1415 16.4286 17.7965C16.8599 17.4515 16.9298 16.8222 16.5848 16.3909L15.804 17.0156L15.0231 17.6403ZM7.80396 7.01562L7.02309 7.64032L7.08556 7.71841L7.86642 7.09371L8.64729 6.46902L8.58482 6.39093L7.80396 7.01562ZM7.86642 7.09371L6.95056 7.4952L7.26228 8.20629L8.17814 7.80481L9.09401 7.40332L8.78229 6.69223L7.86642 7.09371ZM8.17814 7.80481L7.26228 8.20629C7.49947 8.74738 7.85571 9.3165 8.43475 9.60712L8.88333 8.71338L9.3319 7.81963C9.36835 7.83793 9.35324 7.8426 9.30028 7.77436C9.24736 7.70618 9.17555 7.58932 9.09401 7.40332L8.17814 7.80481ZM8.88333 8.71338L8.43475 9.60712L8.82821 9.8046L9.27679 8.91086L9.72536 8.01711L9.3319 7.81963L8.88333 8.71338ZM9.27679 8.91086L8.82821 9.8046L9.22168 10.0021L9.67025 9.10834L10.1188 8.21459L9.72536 8.01711L9.27679 8.91086ZM9.67025 9.10834L9.22168 10.0021C9.35544 10.0692 9.4359 10.1433 9.48965 10.2173L10.2989 9.62989L11.1082 9.04248C10.8483 8.68443 10.5097 8.41076 10.1188 8.21459L9.67025 9.10834ZM10.2989 9.62989L9.48965 10.2173L9.72487 10.5414L10.5342 9.95396L11.3434 9.36655L11.1082 9.04248L10.2989 9.62989ZM10.5342 9.95396L9.72487 10.5414L9.9601 10.8654L10.7694 10.278L11.5787 9.69062L11.3434 9.36655L10.5342 9.95396ZM10.7694 10.278L9.9601 10.8654C10.1558 11.135 10.3769 11.3837 10.6224 11.6108L11.3015 10.8768L11.9807 10.1428C11.8303 10.0037 11.6966 9.85312 11.5787 9.69062L10.7694 10.278ZM11.3015 10.8768L10.6224 11.6108L10.9193 11.8855L11.5984 11.1515L12.2776 10.4175L11.9807 10.1428L11.3015 10.8768ZM11.5984 11.1515L10.9193 11.8855L11.2162 12.1603L11.8953 11.4263L12.5745 10.6923L12.2776 10.4175L11.5984 11.1515ZM11.8953 11.4263L11.2162 12.1603C11.383 12.3146 11.5378 12.4774 11.6809 12.6489L12.4486 12.0081L13.2164 11.3674C13.0177 11.1293 12.8036 10.9042 12.5745 10.6923L11.8953 11.4263ZM12.4486 12.0081L11.6809 12.6489L11.9372 12.9561L12.705 12.3153L13.4727 11.6746L13.2164 11.3674L12.4486 12.0081ZM12.705 12.3153L11.9372 12.9561L12.1936 13.2632L12.9613 12.6225L13.7291 11.9817L13.4727 11.6746L12.705 12.3153ZM12.9613 12.6225L12.1936 13.2632C12.3075 13.3997 12.4048 13.5527 12.4853 13.7253L13.3916 13.3027L14.298 12.8802C14.1465 12.5553 13.957 12.2548 13.7291 11.9817L12.9613 12.6225ZM13.3916 13.3027L12.4853 13.7253L12.6593 14.0984L13.5656 13.6758L14.4719 13.2532L14.298 12.8802L13.3916 13.3027ZM13.5656 13.6758L12.6593 14.0984L12.8332 14.4715L13.7395 14.0489L14.6459 13.6263L14.4719 13.2532L13.5656 13.6758ZM13.7395 14.0489L12.8332 14.4715C12.9626 14.749 13.1042 15.0181 13.258 15.2785L14.119 14.7699L14.98 14.2612C14.8598 14.0578 14.7484 13.8462 14.6459 13.6263L13.7395 14.0489ZM14.119 14.7699L13.258 15.2785L13.4635 15.6263L14.3245 15.1177L15.1855 14.6091L14.98 14.2612L14.119 14.7699ZM14.3245 15.1177L13.4635 15.6263L13.669 15.9742L14.53 15.4656L15.391 14.957L15.1855 14.6091L14.3245 15.1177ZM14.53 15.4656L13.669 15.9742C13.8188 16.2278 13.9775 16.4747 14.1452 16.7147L14.965 16.142L15.7848 15.5693C15.6464 15.3713 15.5151 15.1672 15.391 14.957L14.53 15.4656ZM14.965 16.142L14.1452 16.7147L14.3748 17.0433L15.1946 16.4706L16.0143 15.8979L15.7848 15.5693L14.965 16.142ZM15.1946 16.4706L14.3748 17.0433L14.6044 17.3719L15.4241 16.7992L16.2439 16.2265L16.0143 15.8979L15.1946 16.4706ZM15.4241 16.7992L14.6044 17.3719C14.6859 17.4886 14.7735 17.6076 14.8583 17.703C14.8939 17.7431 14.9718 17.8285 15.0793 17.9053C15.1289 17.9407 15.248 18.0209 15.4195 18.067C15.607 18.1173 15.9599 18.1472 16.2896 17.901L15.6913 17.0998L15.0929 16.2985C15.4163 16.057 15.761 16.0878 15.9382 16.1354C16.0995 16.1787 16.2063 16.2525 16.2417 16.2778C16.2878 16.3107 16.3183 16.3393 16.3304 16.351C16.3444 16.3645 16.3523 16.3734 16.3531 16.3743C16.3543 16.3756 16.3452 16.3653 16.3237 16.337C16.3034 16.3102 16.277 16.2739 16.2439 16.2265L15.4241 16.7992ZM15.6913 17.0998L16.2896 17.901L16.3272 17.873L15.7288 17.0717L15.1305 16.2705L15.0929 16.2985L15.6913 17.0998ZM15.7288 17.0717L16.7244 17.1656L16.7371 17.0314L15.7415 16.9375L14.7459 16.8436L14.7332 16.9778L15.7288 17.0717ZM15.7415 16.9375L14.9606 17.5622L15.0231 17.6403L15.804 17.0156L16.5848 16.3909L16.5224 16.3128L15.7415 16.9375Z" fill="#FF231F"/>
<path d="M16.3403 7.44067C16.6527 6.98523 16.5367 6.36277 16.0813 6.05037C15.6259 5.73796 15.0034 5.8539 14.691 6.30933L15.5156 6.875L16.3403 7.44067ZM15.4591 6.95746L16.1093 7.71716L16.2093 7.63161L16.2837 7.52313L15.4591 6.95746ZM14.8692 7.46235L14.2189 6.70265L14.8692 7.46235ZM14.2047 8.4011L13.2192 8.23157L14.2047 8.4011ZM13.7391 10.0219L14.5363 10.6256L13.7391 10.0219ZM13.4974 10.3412L12.7001 9.73749L13.4974 10.3412ZM13.2556 10.6604L12.4584 10.0567L13.2556 10.6604ZM12.8373 11.3436L11.9376 10.907L12.8373 11.3436ZM12.6607 11.7075L13.5604 12.1441L12.6607 11.7075ZM12.4841 12.0714L11.5844 11.6349L12.4841 12.0714ZM11.8686 13.1045L11.0325 12.556L11.8686 13.1045ZM11.1233 14.0484L10.4557 13.304L11.1233 14.0484ZM10.5104 14.5981L9.84276 13.8537L10.5104 14.5981ZM9.93085 15.1707L10.6677 15.8467L9.93085 15.1707ZM9.6577 15.4683L10.3945 16.1444L9.6577 15.4683ZM9.38456 15.766L8.64772 15.09L9.38456 15.766ZM8.72069 16.5414L7.94669 15.9082L8.72069 16.5414ZM8.52534 16.7802L9.29934 17.4133L8.52534 16.7802ZM8.36861 17.0455L7.80295 17.8701L8.36861 17.0455ZM8.40725 17.072L7.84159 17.8966L8.19895 18.1418L8.62219 18.0486L8.40725 17.072ZM8.54109 17.0425L9.36573 17.6082L10.7966 15.5222L8.32616 16.0659L8.54109 17.0425ZM7.65989 16.5593C7.34748 17.0148 7.46343 17.6372 7.91886 17.9496C8.37429 18.262 8.99675 18.1461 9.30916 17.6907L8.48453 17.125L7.65989 16.5593ZM15.5156 6.875L14.691 6.30933L14.6344 6.3918L15.4591 6.95746L16.2837 7.52313L16.3403 7.44067L15.5156 6.875ZM15.4591 6.95746L14.8088 6.19777L14.2189 6.70265L14.8692 7.46235L15.5195 8.22205L16.1093 7.71716L15.4591 6.95746ZM14.8692 7.46235L14.2189 6.70265C13.7701 7.08683 13.3291 7.59307 13.2192 8.23157L14.2047 8.4011L15.1903 8.57064C15.1834 8.61084 15.1745 8.59773 15.2244 8.52722C15.2743 8.45678 15.3652 8.35411 15.5195 8.22205L14.8692 7.46235ZM14.2047 8.4011L13.2192 8.23157L13.1446 8.66544L14.1301 8.83497L15.1156 9.0045L15.1903 8.57064L14.2047 8.4011ZM14.1301 8.83497L13.1446 8.66544L13.0699 9.09931L14.0555 9.26884L15.041 9.43837L15.1156 9.0045L14.1301 8.83497ZM14.0555 9.26884L13.0699 9.09931C13.0446 9.24681 12.9971 9.34531 12.9419 9.41825L13.7391 10.0219L14.5363 10.6256C14.8034 10.2729 14.9669 9.86936 15.041 9.43837L14.0555 9.26884ZM13.7391 10.0219L12.9419 9.41825L12.7001 9.73749L13.4974 10.3412L14.2946 10.9449L14.5363 10.6256L13.7391 10.0219ZM13.4974 10.3412L12.7001 9.73749L12.4584 10.0567L13.2556 10.6604L14.0528 11.2641L14.2946 10.9449L13.4974 10.3412ZM13.2556 10.6604L12.4584 10.0567C12.2573 10.3223 12.0836 10.6061 11.9376 10.907L12.8373 11.3436L13.7369 11.7802C13.8264 11.5959 13.9316 11.4242 14.0528 11.2641L13.2556 10.6604ZM12.8373 11.3436L11.9376 10.907L11.761 11.2709L12.6607 11.7075L13.5604 12.1441L13.7369 11.7802L12.8373 11.3436ZM12.6607 11.7075L11.761 11.2709L11.5844 11.6349L12.4841 12.0714L13.3838 12.508L13.5604 12.1441L12.6607 11.7075ZM12.4841 12.0714L11.5844 11.6349C11.4852 11.8393 11.3744 12.0347 11.2519 12.2215L12.0881 12.7699L12.9243 13.3184C13.0943 13.059 13.2475 12.7888 13.3838 12.508L12.4841 12.0714ZM12.0881 12.7699L11.2519 12.2215L11.0325 12.556L11.8686 13.1045L12.7048 13.6529L12.9243 13.3184L12.0881 12.7699ZM11.8686 13.1045L11.0325 12.556L10.813 12.8906L11.6492 13.439L12.4854 13.9874L12.7048 13.6529L11.8686 13.1045ZM11.6492 13.439L10.813 12.8906C10.7156 13.0392 10.5974 13.1768 10.4557 13.304L11.1233 14.0484L11.791 14.7928C12.0579 14.5535 12.2903 14.2849 12.4854 13.9874L11.6492 13.439ZM11.1233 14.0484L10.4557 13.304L10.1492 13.5788L10.8169 14.3233L11.4846 15.0677L11.791 14.7928L11.1233 14.0484ZM10.8169 14.3233L10.1492 13.5788L9.84276 13.8537L10.5104 14.5981L11.1781 15.3425L11.4846 15.0677L10.8169 14.3233ZM10.5104 14.5981L9.84276 13.8537C9.61477 14.0581 9.39845 14.2718 9.19401 14.4946L9.93085 15.1707L10.6677 15.8467C10.8274 15.6726 10.9975 15.5045 11.1781 15.3425L10.5104 14.5981ZM9.93085 15.1707L9.19401 14.4946L8.92087 14.7923L9.6577 15.4683L10.3945 16.1444L10.6677 15.8467L9.93085 15.1707ZM9.6577 15.4683L8.92087 14.7923L8.64772 15.09L9.38456 15.766L10.1214 16.4421L10.3945 16.1444L9.6577 15.4683ZM9.38456 15.766L8.64772 15.09C8.45649 15.2984 8.28726 15.4919 8.14204 15.6694L8.91605 16.3026L9.69006 16.9357C9.80532 16.7948 9.94843 16.6306 10.1214 16.4421L9.38456 15.766ZM8.91605 16.3026L8.14204 15.6694L7.94669 15.9082L8.72069 16.5414L9.4947 17.1745L9.69006 16.9357L8.91605 16.3026ZM8.72069 16.5414L7.94669 15.9082L7.75133 16.147L8.52534 16.7802L9.29934 17.4133L9.4947 17.1745L8.72069 16.5414ZM8.52534 16.7802L7.75133 16.147C7.67922 16.2351 7.5938 16.345 7.52747 16.4573C7.50037 16.5032 7.43262 16.6208 7.39368 16.7768C7.37235 16.8623 7.23655 17.4816 7.80295 17.8701L8.36861 17.0455L8.93428 16.2209C9.18593 16.3935 9.30894 16.6445 9.34731 16.8613C9.38039 17.0482 9.35045 17.1959 9.33416 17.2611C9.30184 17.3906 9.25046 17.4728 9.24948 17.4745C9.23539 17.4984 9.24121 17.4844 9.29934 17.4133L8.52534 16.7802ZM8.36861 17.0455L7.80295 17.8701L7.84159 17.8966L8.40725 17.072L8.97292 16.2474L8.93428 16.2209L8.36861 17.0455ZM8.40725 17.072L8.62219 18.0486L8.75603 18.0192L8.54109 17.0425L8.32616 16.0659L8.19232 16.0954L8.40725 17.072ZM8.54109 17.0425L7.71646 16.4769L7.65989 16.5593L8.48453 17.125L9.30916 17.6907L9.36573 17.6082L8.54109 17.0425Z" fill="#FF231F"/>
</svg>
