<svg width="24" height="22" viewBox="0 0 24 22" fill="none" xmlns="http://www.w3.org/2000/svg">
<path d="M5.25757 0.134033C5.73601 -0.141435 6.34904 0.0230089 6.62476 0.501221L6.67163 0.587158L6.74194 0.712158L6.78101 0.844971L6.95288 1.55591C6.99694 1.73315 7.04578 1.84182 7.07788 1.89966C7.09799 1.93542 7.10403 1.94124 7.09351 1.93091L7.40601 2.14185L7.75757 2.36841C8.11257 2.60739 8.4019 2.9242 8.60132 3.31372L8.94507 3.9856C9.02666 4.14496 9.1263 4.2962 9.24194 4.43872L9.48413 4.72778L9.71851 5.02466C9.90592 5.25563 10.081 5.49857 10.2341 5.75122L10.4294 6.07153L10.6248 6.39966C10.8025 6.69389 10.9392 7.01144 11.031 7.34497L11.1326 7.71997L11.2341 8.08716C11.2938 8.30368 11.3659 8.51715 11.4451 8.71997L11.5779 9.07153L11.7185 9.4231C11.8006 9.63357 11.8942 9.83962 11.9919 10.0403L12.156 10.384L12.3201 10.72C12.3692 10.82 12.4363 10.9176 12.5388 11.009L12.8357 11.2747L13.1326 11.5325C13.4708 11.8327 13.7143 12.2108 13.8357 12.6497L14.3435 14.5247L14.4294 14.8293L14.8357 15.0325L15.2419 15.2278C15.6637 15.432 15.9932 15.7659 16.1482 16.2043L16.2419 16.6809L16.2654 17.095L16.2966 17.509C16.3041 17.6238 16.3317 17.688 16.3591 17.7278L16.5779 18.0403L16.7888 18.345C16.948 18.5727 17.102 18.8089 17.2419 19.0481L17.4294 19.3684L17.6169 19.6965C17.7438 19.9134 17.8193 20.0326 17.8513 20.0793L17.9138 20.1653L18.0232 20.3137L18.0623 20.3606L18.0857 20.4153L18.1404 20.5012C18.4158 20.9795 18.2511 21.5926 17.7732 21.8684C17.2948 22.1438 16.6818 21.9793 16.406 21.5012L16.3826 21.4622L16.3044 21.3606L16.2966 21.345L16.281 21.3293L15.8904 20.7043L15.7029 20.384L15.5154 20.0559C15.4033 19.8643 15.2838 19.6763 15.156 19.4934L14.9373 19.1809L14.7185 18.8762C14.459 18.5048 14.3253 18.0813 14.2966 17.6418L14.2732 17.2278L14.2498 16.9622L13.9607 16.8293L13.5544 16.634C13.0707 16.3997 12.6717 16.0001 12.5154 15.4231L12.3123 14.6731C12.2453 14.4253 12.1774 14.178 12.1091 13.9309L11.906 13.1809C11.8898 13.1235 11.8592 13.0812 11.8044 13.0325L11.5076 12.7668L11.2185 12.5012C10.9285 12.2439 10.6854 11.9441 10.5154 11.595L10.3513 11.259L10.1873 10.9153C10.0662 10.6665 9.95251 10.4091 9.85132 10.1497L9.71851 9.7981L9.57788 9.44653C9.47321 9.17822 9.38195 8.89989 9.30444 8.61841L9.20288 8.25122L9.10132 7.87622C9.05639 7.71307 8.9941 7.56348 8.91382 7.43091L8.52319 6.79028C8.41846 6.61736 8.3015 6.45067 8.17163 6.29028L7.68726 5.69653C7.48477 5.44677 7.30955 5.17704 7.16382 4.89185L6.99194 4.55591L6.82788 4.21997C6.79952 4.16509 6.74463 4.103 6.64038 4.03247L6.28882 3.7981L5.94507 3.56372C5.40267 3.19809 5.15127 2.58054 5.01538 2.03247L4.83569 1.32935C4.67621 0.882944 4.83243 0.379151 5.25757 0.134033Z" fill="black"/>
<path d="M17.7737 0.133417C18.2507 0.409554 18.4138 1.02345 18.1381 1.50223L18.0871 1.58591L18.014 1.70947L17.9186 1.80987L17.3958 2.31111C17.2656 2.43724 17.1953 2.53444 17.1607 2.59167C17.1553 2.60076 17.1513 2.61106 17.1482 2.61695L17.1187 3.00414L17.0874 3.41948C17.0585 3.84668 16.9377 4.25893 16.701 4.62718L16.2911 5.26172C16.1939 5.41262 16.1125 5.57405 16.047 5.74603L15.911 6.10466L15.7777 6.4526C15.6719 6.73088 15.548 7.00396 15.4062 7.26349L15.0467 7.92299C14.881 8.22615 14.6679 8.50449 14.4246 8.7526L14.1575 9.0246L13.8875 9.30727C13.7302 9.4677 13.577 9.62993 13.4412 9.80037L12.973 10.3964C12.8323 10.5732 12.6999 10.7573 12.5754 10.9426L12.1576 11.5636C12.0947 11.6572 12.0483 11.7682 12.0205 11.9048L11.9388 12.2951L11.8638 12.6816C11.7737 13.1244 11.5615 13.5187 11.2439 13.8439L10.9739 14.1266L9.87846 15.2302L9.65766 15.4573L9.68457 15.9112L9.71825 16.3611C9.76429 16.9843 9.5254 17.5755 8.9664 17.9519L8.61689 18.1903L8.27414 18.4249C8.17792 18.4897 8.13642 18.5447 8.11601 18.5886L7.96148 18.9309L7.79628 19.2702C7.67934 19.522 7.55707 19.7705 7.42063 20.0113L7.23022 20.3382L7.05047 20.668C6.92616 20.8874 6.86048 21.0067 6.83898 21.0522L6.79866 21.1387L6.72763 21.2972L6.6998 21.3585L6.66806 21.4129L6.62097 21.5034C6.34436 21.9804 5.73144 22.1455 5.25456 21.8702C4.77855 21.5939 4.61526 20.9797 4.89016 20.5014L4.92189 20.4469L4.95545 20.3643L4.96118 20.3429L4.97367 20.3176L5.02934 20.1951C5.08681 20.0735 5.18898 19.8942 5.31003 19.6805L5.50044 19.3537L5.68019 19.0239C5.78977 18.8305 5.89349 18.6332 5.98768 18.4306L6.14898 18.0845L6.30351 17.7422C6.49474 17.3309 6.79573 17.0039 7.16127 16.7582L7.50792 16.5304L7.71934 16.3809L7.69681 16.06L7.66314 15.61C7.62346 15.0731 7.76745 14.5216 8.18876 14.0961L8.73648 13.5442C8.91625 13.3627 9.09894 13.1787 9.27743 12.9964L9.54453 12.7244L9.81839 12.4485C9.86101 12.4049 9.88802 12.3555 9.90294 12.2822L9.97792 11.8957L10.0597 11.5053C10.137 11.1262 10.2812 10.7705 10.497 10.4487L10.7059 10.1382L10.9215 9.82379C11.0765 9.5932 11.2423 9.36771 11.4165 9.14905L11.8847 8.55302C12.0634 8.32866 12.2547 8.11268 12.4582 7.90505L12.732 7.62915L13.002 7.34647C13.1204 7.22569 13.2194 7.09685 13.2938 6.96086L13.6533 6.30136C13.7502 6.12371 13.8371 5.93928 13.9106 5.74617L14.0467 5.38754L14.176 5.03282C14.2906 4.73164 14.4375 4.44582 14.6112 4.17602L15.0212 3.54149C15.054 3.48978 15.0848 3.41518 15.0938 3.29182L15.1212 2.86972L15.1525 2.45439C15.1966 1.80202 15.598 1.27168 16.0031 0.878632L16.5288 0.366706C16.8352 0.00524246 17.3495 -0.111525 17.7737 0.133417Z" fill="black"/>
</svg>
