<svg width="87" height="82" viewBox="0 0 87 82" fill="none" xmlns="http://www.w3.org/2000/svg">
<path d="M3.53546 41.0391C3.53546 20.3284 20.3248 3.53906 41.0355 3.53906H44.0355C64.7461 3.53906 81.5355 20.3284 81.5355 41.0391C81.5355 61.7497 64.7461 78.5391 44.0355 78.5391H41.0355C20.3248 78.5391 3.53546 61.7497 3.53546 41.0391Z" fill="#FFC053"/>
<path d="M49.9417 0C51.1892 0.132927 52.2965 0.695509 53.1995 1.54688L54.1605 2.4375L55.098 3.32812L55.1448 3.375L56.2933 3.35156L57.4651 3.32812C58.9791 3.2929 60.4073 3.79391 61.5667 4.80469L63.3011 6.30469C63.8779 6.80758 64.4391 7.30133 64.9886 7.78125L65.8089 8.50781L66.6526 9.23438C66.8067 9.3669 67.0374 9.50956 67.4261 9.60938L69.8167 10.2188C71.0081 10.5227 72.1158 11.0566 73.0745 11.8359L73.9651 12.5625L74.8792 13.3125C75.9756 14.2069 76.7267 15.3703 77.1058 16.7109L77.762 19.0547C77.8817 19.4742 78.0478 19.7998 78.2542 20.0625L79.6605 21.8438C80.3009 22.6568 80.8158 23.5583 81.2073 24.5156L81.6292 25.5469L82.0745 26.6016C82.4639 27.5546 82.709 28.5544 82.8245 29.5781L82.9651 30.7031L83.0823 31.8281C83.1106 32.077 83.2075 32.3663 83.4339 32.7188L84.1136 33.7734L84.7698 34.8281C85.4902 35.9495 85.9161 37.2018 85.9651 38.5547L86.0589 40.8984C86.1075 42.2683 85.7602 43.5701 85.098 44.7422L84.4651 45.8438L83.8558 46.9219C83.8384 46.9525 83.8343 46.9865 83.8323 46.9922C83.8332 47.0033 83.824 47.0276 83.8323 47.0625L84.137 48.3047L84.4417 49.5234C84.6649 50.4451 84.658 51.4721 84.2542 52.4766C83.8582 53.461 83.1644 54.1863 82.4495 54.7031L81.348 55.5L80.4808 56.1094L80.5745 57.0234L80.6917 58.3125C80.8465 59.9561 80.3885 61.5981 79.1214 62.8594L78.2776 63.6797L77.4573 64.5234C76.7526 65.2236 75.9721 65.8414 75.137 66.375L74.1526 67.0078L73.1683 67.6172C73.1157 67.651 73.0557 67.7138 72.9808 67.9219L72.137 70.2656C71.6941 71.4954 70.9838 72.6067 69.9808 73.4766L69.0901 74.2266L68.223 74.9766C67.1492 75.9077 65.8541 76.4378 64.473 76.5938L63.2542 76.7344L62.012 76.875C61.8622 76.8928 61.7917 76.9338 61.7073 77.0156L59.973 78.75C59.0372 79.677 57.8916 80.3433 56.598 80.6719L55.4964 80.9531L54.3714 81.2344C53.3898 81.4837 52.3843 81.6029 51.3714 81.6094L50.1995 81.6328H49.0511C48.0735 81.6386 47.1014 81.5474 46.1448 81.3516L45.0198 81.1172L43.8714 80.8828C43.2029 80.7457 42.5479 80.6293 41.9026 80.5547L40.8011 80.4375L39.6761 80.2969C38.8679 80.2033 38.069 80.0983 37.2855 79.9453L36.2308 79.7344L35.1526 79.5234C35.0642 79.5063 34.8272 79.4866 34.3792 79.6406L33.137 80.0625L31.8714 80.5078C30.9882 80.8105 29.9164 80.9094 28.8245 80.5547C27.7408 80.1992 26.9461 79.4985 26.4105 78.75L24.8636 76.5469L24.5823 76.2656L23.5276 75.9375L22.473 75.6328C21.3915 75.3047 20.4144 74.76 19.5433 74.0391L18.6995 73.3594L17.8558 72.6562C17.4406 72.3126 16.9701 71.9938 16.473 71.7188L14.5042 70.6406C13.8702 70.2899 13.207 69.9292 12.512 69.5625L11.4339 69L10.3558 68.4141C8.95949 67.6736 7.95259 66.4874 7.47296 64.9688L7.1214 63.8203L6.7464 62.6719C6.64386 62.3496 6.49684 62.0793 6.27765 61.8516L4.63702 60.1641C3.41803 58.8973 2.94488 57.2729 3.13702 55.6172L3.30109 54.3516L3.44171 53.0859C3.50674 52.5171 3.46614 52.0662 3.39484 51.7266L3.1839 50.6719L2.94952 49.6172C2.77716 48.7963 2.67065 47.966 2.59796 47.1328L2.41046 44.9766C2.39151 44.7581 2.30078 44.4431 2.0589 44.0156L1.44952 42.9141L0.816711 41.8125C0.0523947 40.4616 -0.231861 38.8998 0.207336 37.3125L0.535461 36.2109L0.840149 35.0859C1.09449 34.17 1.4278 33.2858 1.84796 32.4375L2.36359 31.4062L2.85577 30.375C2.92154 30.24 2.97914 30.0594 2.94952 29.7422L2.71515 27.2578C2.63175 26.3642 2.7715 25.415 3.23077 24.5156C3.68657 23.6239 4.37296 22.9606 5.10577 22.5L6.20734 21.8203L7.3089 21.1172C7.44612 21.0304 7.51357 20.9636 7.54327 20.9297C7.56823 20.9005 7.58582 20.871 7.59015 20.8594L7.96515 19.8281L8.36359 18.7734C8.67937 17.9238 9.06457 17.0868 9.51202 16.2891L10.0745 15.3047L10.637 14.2969C11.2957 13.1256 12.2415 12.2025 13.4261 11.5781L14.4573 11.0391L15.4651 10.5C15.9682 10.2351 16.4245 9.93873 16.8245 9.60938L17.6917 8.90625L18.5355 8.20312C19.1764 7.6735 19.8583 7.17451 20.5511 6.70312L22.3792 5.4375C23.4475 4.71064 24.664 4.31032 25.9417 4.21875L27.0901 4.125L28.2386 4.05469C28.4382 4.04038 28.6056 3.96054 28.8011 3.82031L30.723 2.46094C31.6861 1.76726 32.769 1.27687 33.9339 1.03125L36.137 0.5625C37.0271 0.374832 38.0056 0.342392 38.973 0.585938L39.9339 0.914062L40.0276 0.960938C40.2152 0.878333 40.3523 0.761868 40.473 0.726562C41.0452 0.559624 41.6466 0.52563 42.0901 0.515625L44.3401 0.46875C44.9764 0.454685 45.6377 0.392231 46.3089 0.304688L47.4808 0.164062L48.6526 0H49.9417ZM48.2542 6.11719L47.1058 6.25781C46.2266 6.37283 45.3443 6.44966 44.4808 6.46875L43.3558 6.49219H43.2386C43.0758 6.67784 42.9069 6.8735 42.6761 7.03125C41.8001 7.62789 40.9032 7.59982 40.5667 7.57031C39.8734 7.50756 39.2673 7.24026 38.973 7.10156L38.1761 6.72656L37.4964 6.39844C37.467 6.40218 37.4265 6.41191 37.3792 6.42188L36.2776 6.65625L35.1526 6.89062C34.844 6.95696 34.545 7.09334 34.2386 7.3125L33.2776 8.01562L32.3167 8.69531C31.2378 9.4724 29.9951 9.93559 28.6605 10.0312L27.512 10.1016L26.3636 10.1953C26.1091 10.2144 25.9181 10.2713 25.7542 10.3828L23.9261 11.6484C23.3855 12.0162 22.8514 12.4108 22.3558 12.8203L20.6683 14.2266C19.9351 14.8324 19.1322 15.37 18.2776 15.8203L16.2151 16.8984C16.0506 16.9873 15.947 17.0805 15.8636 17.2266L14.7386 19.2422C14.4431 19.7702 14.1926 20.3104 13.9886 20.8594L13.5901 21.9141L13.2151 22.9688C12.6884 24.3827 11.6955 25.4495 10.4964 26.2031L9.39484 26.9062L8.73859 27.2812L8.8089 27.9375L8.92609 29.1797C9.05055 30.505 8.85129 31.8236 8.2464 33.0469L7.73077 34.0781L7.21515 35.0859C6.96285 35.5946 6.76059 36.1444 6.60577 36.7031L6.30109 37.8047L6.01984 38.8125L6.04327 38.8594L6.65265 39.9609L7.28546 41.0625C7.87607 42.1069 8.28184 43.2481 8.38702 44.4609L8.48077 45.5391L8.57452 46.5938C8.62598 47.187 8.70919 47.7873 8.83234 48.375L9.04327 49.4531L9.27765 50.5078C9.50191 51.5788 9.52327 52.6824 9.39484 53.7891L9.25421 55.0547L9.11359 56.1797L9.76984 56.8594L10.5901 57.7031C11.461 58.6081 12.1115 59.6716 12.4886 60.8672L12.8401 62.0156L13.1683 63.1172L14.2464 63.6797L15.3011 64.2422C16.0305 64.627 16.7374 65.0183 17.4105 65.3906L19.3792 66.4688C20.1934 66.9192 20.9666 67.4519 21.6761 68.0391L22.5198 68.7188L23.3636 69.4219C23.6152 69.6301 23.8853 69.792 24.2073 69.8906L25.262 70.1953L26.3167 70.5234C27.7803 70.9674 28.9191 71.9111 29.7386 73.0547L30.512 74.1562L30.7698 74.5078L31.1683 74.3906L32.4339 73.9688C33.6576 73.5479 34.9704 73.381 36.3011 73.6406L37.3792 73.8281L38.4339 74.0391C39.0648 74.1624 39.7169 74.2673 40.3792 74.3438L41.4808 74.4844L42.5823 74.6016C43.4101 74.6971 44.2536 74.8283 45.0901 75L47.3401 75.4688C47.8861 75.5808 48.4432 75.6355 49.0042 75.6328H50.1761L51.3245 75.6094C51.8536 75.6062 52.3827 75.552 52.8948 75.4219L54.0198 75.1406L55.1214 74.8359C55.3223 74.7849 55.5368 74.6999 55.7542 74.4844L57.4651 72.7734C58.5292 71.7183 59.8765 71.0889 61.3558 70.9219L62.5745 70.7812L63.8167 70.6406C64.067 70.6107 64.1901 70.5358 64.2855 70.4531L65.1526 69.7031L66.0433 68.9297C66.2084 68.7856 66.3668 68.5857 66.4886 68.25L66.9105 67.0547L67.3323 65.8828C67.8219 64.5248 68.7022 63.3802 69.9573 62.5781L70.9183 61.9453L71.9026 61.3125C72.3742 61.0112 72.8121 60.6579 73.2151 60.2578L74.0589 59.4375L74.6917 58.7812L74.598 57.5859L74.4808 56.2734C74.2955 54.2807 75.1601 52.564 76.7073 51.4453L77.8323 50.6484L78.4183 50.2031L78.3011 49.7109L78.0198 48.4688C77.6451 46.9182 77.8383 45.3651 78.6292 43.9688L79.262 42.8906L79.8714 41.7891C80.0281 41.5117 80.0656 41.297 80.0589 41.1094L79.9651 38.7656C79.9567 38.5611 79.9076 38.3378 79.7308 38.0625L78.3714 35.9531C77.7034 34.91 77.2713 33.7541 77.1292 32.5078L76.9886 31.3828L76.8714 30.2344C76.8172 29.7623 76.6978 29.3115 76.5198 28.875L76.098 27.8203L75.6526 26.7656C75.4751 26.3345 75.2399 25.9404 74.9495 25.5703L74.2464 24.6562L73.5433 23.7656C72.8187 22.8438 72.2913 21.7987 71.973 20.6719L71.6448 19.5234L71.3167 18.3516C71.2575 18.1418 71.1831 18.035 71.0823 17.9531L70.1917 17.2266L69.2776 16.5C69.0343 16.3021 68.7406 16.1337 68.3401 16.0312L65.9495 15.4219C64.7552 15.1172 63.6382 14.584 62.6917 13.7578L61.0511 12.3047C60.5011 11.8243 59.9178 11.3317 59.3401 10.8281L57.6058 9.32812L56.4339 9.35156L55.2386 9.375C53.5787 9.41168 52.1362 8.76385 50.9964 7.6875L50.0355 6.79688L49.1683 5.97656L48.2542 6.11719Z" fill="#FFC053"/>
</svg>
